# xmcd
#
# Track frame offsets: 
#        150
#        23314
#        38609
#        52828
#        79540
#        100147
#        123335
#        135420
#        156035
#        176812
#
# Disc length: 2689 seconds
#
# Revision: 0
# Processed by: cddbd v1.5.2PL0 Copyright (c) Steve Scherf et al.
# Submitted via: ExactAudioCopy v0.99pb4
#
DISCID=660a7f0a
DTITLE=Dave Herrero - Austin To Chicago
DYEAR=1900
DGENRE=Blues
TTITLE0=I Don't Believe
TTITLE1=Nacogdoches
TTITLE2=Doggie Blue
TTITLE3=Leave Me Be
TTITLE4=Problem
TTITLE5=What Could Have Been
TTITLE6=Halo
TTITLE7=Jealous Kind
TTITLE8=(She's With) Another Man Tonight
TTITLE9=What Could Have Been (Reprise)
EXTD=
EXTT0=
EXTT1=
EXTT2=
EXTT3=
EXTT4=
EXTT5=
EXTT6=
EXTT7=
EXTT8=
EXTT9=
PLAYORDER=
